<svg width="20" height="20" viewBox="0 0 20 20" fill="none" xmlns="http://www.w3.org/2000/svg">
<g clip-path="url(#clip0_260_1566)">
<path d="M10.677 0.0205078C15.7515 0.0205078 19.9033 4.17232 19.9033 9.24675V10.6883C19.9033 15.7627 15.7514 19.9145 10.677 19.9145H9.23552C4.16108 19.9145 0.00927734 15.7627 0.00927734 10.6883V9.24675C0.00927734 4.17232 4.16108 0.0205078 9.23552 0.0205078H10.677ZM10.1376 5.02067L10.0093 5.02051C8.94038 5.02051 7.87148 5.05584 7.87148 5.05584C6.31025 5.05584 5.04461 6.32147 5.04461 7.8827C5.04461 7.8827 5.01216 8.80054 5.00946 9.7857L5.00928 9.91451C5.00928 11.0175 5.04461 12.1583 5.04461 12.1583C5.04461 13.7195 6.31025 14.9852 7.87148 14.9852C7.87148 14.9852 8.87086 15.0205 9.90329 15.0205C11.0063 15.0205 12.1824 14.9852 12.1824 14.9852C13.7437 14.9852 14.9739 13.7549 14.9739 12.1937C14.9739 12.1937 15.0093 11.0657 15.0093 9.98519L15.0086 9.73161C15.0038 8.76213 14.9739 7.84735 14.9739 7.84735C14.9739 6.28612 13.7436 5.05584 12.1824 5.05584C12.1824 5.05584 11.1647 5.02328 10.1376 5.02067ZM10.0093 5.92048C10.8858 5.92048 12.0096 5.94947 12.0096 5.94947C13.2899 5.94947 14.0803 6.73991 14.0803 8.02013C14.0803 8.02013 14.1093 9.12477 14.1093 9.99149C14.1093 10.8775 14.0803 12.0208 14.0803 12.0208C14.0803 13.301 13.2899 14.0915 12.0096 14.0915C12.0096 14.0915 11.0158 14.1158 10.1534 14.1199L9.92236 14.1205C9.07578 14.1205 8.04426 14.0915 8.04426 14.0915C6.76406 14.0915 5.93826 13.2657 5.93826 11.9855C5.93826 11.9855 5.90928 10.8381 5.90928 9.93356C5.90928 9.08698 5.93826 8.02013 5.93826 8.02013C5.93826 6.73991 6.76408 5.94947 8.04426 5.94947C8.04426 5.94947 9.13276 5.92048 10.0093 5.92048ZM10.0093 7.4592C8.5947 7.4592 7.44798 8.60592 7.44798 10.0205C7.44798 11.435 8.5947 12.5817 10.0093 12.5817C11.4238 12.5817 12.5705 11.435 12.5705 10.0205C12.5705 8.60592 11.4238 7.4592 10.0093 7.4592ZM10.0093 8.3538C10.9297 8.3538 11.6759 9.09999 11.6759 10.0205C11.6759 10.941 10.9297 11.6871 10.0093 11.6871C9.08879 11.6871 8.34258 10.941 8.34258 10.0205C8.34258 9.09999 9.08877 8.3538 10.0093 8.3538ZM12.6931 6.74843C12.3513 6.74843 12.0742 7.02689 12.0742 7.37037C12.0742 7.71385 12.3513 7.99229 12.6931 7.99229C13.0349 7.99229 13.3119 7.71385 13.3119 7.37037C13.3119 7.02687 13.0349 6.74843 12.6931 6.74843Z" fill="#717680"/>
</g>
<defs>
<clipPath id="clip0_260_1566">
<rect width="20" height="20" fill="white"/>
</clipPath>
</defs>
</svg>
