<svg width="20" height="20" viewBox="0 0 20 20" fill="none" xmlns="http://www.w3.org/2000/svg">
<g clip-path="url(#clip0_260_1562)">
<path d="M18.4375 0H1.5625C0.699219 0 0 0.699219 0 1.5625V18.4375C0 19.3008 0.699219 20 1.5625 20H18.4375C19.3008 20 20 19.3008 20 18.4375V1.5625C20 0.699219 19.3008 0 18.4375 0ZM7.20312 14.1836H5.25391V7.94531H7.20312V14.1836ZM6.17578 7.16406H6.16016C5.45312 7.16406 4.99609 6.6875 4.99609 6.08203C4.99609 5.46484 5.46875 5 6.1875 5C6.90625 5 7.34766 5.46484 7.36328 6.08203C7.36719 6.68359 6.91016 7.16406 6.17578 7.16406ZM15 14.1836H12.7891V10.957C12.7891 10.1133 12.4453 9.53516 11.6836 9.53516C11.1016 9.53516 10.7773 9.92578 10.6289 10.3008C10.5742 10.4336 10.582 10.6211 10.582 10.8125V14.1836H8.39062C8.39062 14.1836 8.41797 8.46484 8.39062 7.94531H10.582V8.92578C10.7109 8.49609 11.4102 7.88672 12.5273 7.88672C13.9141 7.88672 15 8.78516 15 10.7148V14.1836Z" fill="#717680"/>
</g>
<defs>
<clipPath id="clip0_260_1562">
<rect width="20" height="20" fill="white"/>
</clipPath>
</defs>
</svg>
