<svg width="38" height="48" viewBox="0 0 38 48" fill="none" xmlns="http://www.w3.org/2000/svg">
<path d="M12.5224 14.8177V19.1396C11.8696 18.9092 11.1668 18.7825 10.4353 18.7825C6.97735 18.7825 4.17412 21.5858 4.17412 25.0437C4.17412 28.5017 6.97735 31.3049 10.4353 31.3049C11.1668 31.3049 11.8696 31.1782 12.5224 30.9478V35.2697C11.8484 35.4061 11.1496 35.479 10.4353 35.479C4.67141 35.479 0 30.8076 0 25.0437C0 21.6299 1.63778 18.6001 4.1722 16.6955C5.91558 15.3841 8.08328 14.6084 10.4334 14.6084C11.1476 14.6084 11.8465 14.6794 12.5205 14.8177H12.5224Z" fill="#4483F2"/>
<path d="M20.8704 8.34825V14.8206C20.4327 14.3733 19.9661 13.9547 19.4746 13.5669C18.6202 12.8929 17.689 12.3131 16.6982 11.8427V0C19.0656 1.77794 20.6516 4.53893 20.8512 7.67816C20.8647 7.90088 20.8724 8.12361 20.8724 8.34825H20.8704Z" fill="#4483F2"/>
<path d="M36.1686 32.3478C34.3638 29.2297 30.9923 27.1311 27.1311 27.1311C26.4169 27.1311 25.718 27.2022 25.044 27.3404C24.9807 27.3538 24.9192 27.3654 24.8578 27.3788C23.3871 27.7052 22.0354 28.3426 20.8699 29.2163V25.0441C20.8699 24.8194 20.8622 24.5967 20.8488 24.374C20.6491 21.2367 19.0632 18.4737 16.6958 16.6958V37.5645C16.6958 37.7891 16.7035 38.0119 16.7169 38.2346C16.9166 41.3738 18.5025 44.1348 20.8699 45.9128C22.0834 46.8248 23.5004 47.4776 25.044 47.7905C25.718 47.9268 26.4169 47.9998 27.1311 47.9998C32.895 47.9998 37.5664 43.3284 37.5664 37.5645C37.5664 35.6637 37.0576 33.8819 36.1706 32.3459L36.1686 32.3478ZM27.1311 43.8257C26.3996 43.8257 25.6969 43.699 25.044 43.4686C22.6133 42.6084 20.8699 40.289 20.8699 37.5645C20.8699 36.4259 21.1752 35.3565 21.7071 34.4368C21.8223 34.2371 21.949 34.0451 22.0853 33.8589C22.0853 33.8589 22.0872 33.8569 22.0891 33.855C22.093 33.8512 22.0949 33.8454 22.0987 33.8416C22.0987 33.8397 22.1026 33.8358 22.1045 33.8339C22.1179 33.8166 22.1295 33.8013 22.1429 33.784C22.8744 32.8182 23.8805 32.0732 25.046 31.6604C25.6988 31.43 26.4015 31.3033 27.133 31.3033C29.4505 31.3033 31.4761 32.5648 32.5571 34.4368C33.0889 35.3565 33.3942 36.4259 33.3942 37.5645C33.3942 41.0225 30.591 43.8257 27.133 43.8257H27.1311Z" fill="#4483F2"/>
</svg>
