<svg width="184" height="56" viewBox="0 0 184 56" fill="none" xmlns="http://www.w3.org/2000/svg">
<path d="M30.5497 42.4233L21.1658 14.4617C21.1658 14.4361 21.1401 14.4105 21.1401 14.385C20.2428 12.0591 18.0122 10.5 15.4995 10.5C12.1921 10.5 9.5 13.1837 9.5 16.4808C9.5 17.1709 9.6282 17.861 9.85895 18.5C9.85895 18.5256 9.85895 18.5511 9.88459 18.5511L19.089 46.0016C19.8325 48.5319 22.217 50.2955 24.8578 50.2955C28.1652 50.2955 30.8573 47.6118 30.8573 44.3147C30.8573 43.7013 30.7548 43.0879 30.5753 42.4744C30.5497 42.4744 30.5497 42.4489 30.5497 42.4233Z" fill="#BEBEBE"/>
<path d="M47.497 42.4231L41.9333 25.7585C41.9333 25.733 41.9077 25.7074 41.9077 25.6819C41.036 23.356 38.7797 21.7969 36.2928 21.7969C32.9597 21.8224 30.2676 24.5061 30.2676 27.8033C30.2676 28.4934 30.3958 29.1835 30.6265 29.8224C30.6265 29.848 30.6265 29.8736 30.6522 29.8736L36.062 46.0013C36.8055 48.5317 39.19 50.2953 41.8308 50.2953C45.1382 50.2953 47.8303 47.6116 47.8303 44.3144C47.8303 43.701 47.7278 43.0876 47.5483 42.4742C47.497 42.4742 47.497 42.4486 47.497 42.4231Z" fill="#BEBEBE"/>
<path d="M56.445 18.4491C56.3424 18.2191 56.2399 17.989 56.086 17.7334C56.086 17.7079 56.0604 17.6823 56.0348 17.6568C56.0348 17.6568 55.9835 17.5801 55.9066 17.4267C55.8809 17.4012 55.8553 17.35 55.8297 17.3245C55.3425 16.5833 53.4452 13.9507 49.7276 11.1392C48.9071 10.5002 47.8046 10.3469 46.8304 10.7302C45.8561 11.1136 45.1638 11.9315 44.9843 12.9539C44.4459 15.8932 44.2152 20.0338 44.9843 22.2063C45.01 22.2318 45.01 22.283 45.0356 22.3085C45.1638 22.743 45.3433 23.1775 45.5484 23.5609C46.6252 25.5034 48.702 26.628 50.83 26.628C51.5223 26.628 52.2402 26.5002 52.9324 26.2446C54.4451 25.6823 55.6502 24.5577 56.2912 23.0753C57.0091 21.5929 57.0347 19.9571 56.445 18.4491Z" fill="#BEBEBE"/>
<path d="M76.8802 35.3693H74.265C74.0856 35.3693 73.9574 35.4971 73.9061 35.6505C73.7266 36.4939 73.4959 37.414 73.2651 38.3853C73.0087 39.3821 72.7267 40.3789 72.4447 41.3501C72.1626 42.3469 71.855 43.2926 71.5729 44.2128C71.3935 44.7495 71.2396 45.2351 71.0602 45.6952C70.855 45.1329 70.6756 44.545 70.4705 43.9316C70.1628 42.9859 69.8808 42.0147 69.6244 41.069C69.3423 40.0977 69.086 39.1521 68.8552 38.2319C68.6245 37.3118 68.4193 36.4428 68.2655 35.6249C68.2399 35.446 68.086 35.3438 67.9066 35.3438H65.8298C65.6503 35.3438 65.5221 35.4715 65.4708 35.6249C65.2914 36.4428 65.0863 37.3118 64.8299 38.2319C64.5991 39.1521 64.3171 40.0977 64.0607 41.069C63.7787 42.0402 63.4966 42.9859 63.2146 43.9316C63.0351 44.5195 62.83 45.1073 62.6249 45.6952C62.4711 45.2351 62.2916 44.7495 62.1121 44.2128C61.8045 43.2926 61.5224 42.3469 61.2404 41.3501C60.9584 40.3789 60.702 39.3565 60.4456 38.3853C60.1892 37.3885 59.9841 36.4684 59.8046 35.6505V35.6249C59.7533 35.4715 59.6251 35.3693 59.4457 35.3693H56.7279C56.6254 35.3693 56.5228 35.4204 56.4459 35.4971C56.369 35.5738 56.3434 35.7016 56.369 35.8038C57.0869 38.5642 57.8304 41.1712 58.6252 43.5482C59.42 45.9252 60.2405 48.0977 61.0866 49.938C61.1378 50.0658 61.266 50.1425 61.4199 50.1425H63.6248C63.7787 50.1425 63.9069 50.0402 63.9581 49.9124C64.4709 48.6089 65.0093 47.1009 65.5734 45.4396C66.0093 44.1616 66.3939 42.8581 66.7784 41.5035C67.163 42.8581 67.5732 44.1872 68.0091 45.4396C68.5732 47.1009 69.1372 48.6089 69.6244 49.9124C69.6244 49.938 69.65 49.938 69.65 49.9636C69.7269 50.0658 69.8295 50.1425 69.9577 50.1425H72.1626C72.3165 50.1425 72.4447 50.0658 72.4959 49.938C73.342 48.0722 74.1625 45.9252 74.9573 43.5482C75.7521 41.1712 76.5213 38.5642 77.2135 35.8038C77.2392 35.7016 77.2135 35.5738 77.1366 35.4971C77.0853 35.4204 76.9828 35.3693 76.8802 35.3693Z" fill="#BEBEBE"/>
<path d="M90.1611 38.4876C89.956 37.7719 89.6227 37.1585 89.1612 36.6473C88.6997 36.1362 88.0843 35.7272 87.3408 35.4461C86.5972 35.1649 85.6999 35.0371 84.6487 35.0371C83.7513 35.0371 82.8796 35.1138 82.1104 35.2416C81.3156 35.3949 80.7515 35.5227 80.3926 35.6761C80.2388 35.7528 80.1619 35.9061 80.1875 36.0595L80.4952 38.1298C80.5208 38.232 80.5721 38.3342 80.6746 38.3854C80.7772 38.4365 80.9054 38.462 81.0079 38.4109C81.29 38.2831 81.7258 38.1809 82.3412 38.0786C82.9309 37.9764 83.6488 37.8997 84.4692 37.8997C85.0589 37.8997 85.546 37.9764 85.905 38.1553C86.2639 38.3087 86.546 38.5387 86.7254 38.7943C86.9306 39.0754 87.0844 39.3822 87.1613 39.74C87.2382 40.0978 87.2639 40.3534 87.2639 40.3534C87.2639 40.5579 87.2895 40.8646 87.2895 41.1457C87.11 41.1202 86.9306 41.0691 86.6998 41.0435C86.4434 40.9924 86.187 40.9668 85.905 40.9413C85.623 40.9157 85.3409 40.8901 85.0845 40.8901C84.2641 40.8901 83.4693 40.9668 82.7258 41.1457C81.9566 41.3246 81.29 41.5802 80.7003 41.9636C80.1106 42.347 79.6234 42.8326 79.2901 43.4461C78.9312 44.0595 78.7773 44.8007 78.7773 45.6186C78.7773 46.4876 78.9312 47.2288 79.2132 47.8678C79.5209 48.5068 79.9311 49.0179 80.4695 49.4013C80.9823 49.7847 81.6233 50.0659 82.3412 50.2192C83.0334 50.3981 83.8026 50.4748 84.623 50.4748C85.1871 50.4748 85.7768 50.4493 86.3409 50.3981C86.9049 50.347 87.4433 50.2959 87.9305 50.2448C88.4176 50.1937 88.8791 50.117 89.2637 50.0659C89.6483 50.0147 89.956 49.9636 90.1611 49.9125C90.3405 49.8869 90.4687 49.7336 90.4687 49.5547V41.2991C90.4687 40.9924 90.4431 40.4812 90.4431 40.1745C90.4175 40.1489 90.3662 39.1777 90.1611 38.4876ZM87.2639 43.855V47.51C87.0331 47.5611 86.7511 47.5866 86.4434 47.5866C85.9819 47.6122 85.4691 47.6377 84.8794 47.6377C83.9564 47.6377 83.2129 47.4844 82.7001 47.1521C82.2386 46.871 82.0079 46.3598 82.0079 45.5675C82.0079 45.1585 82.1104 44.8518 82.2899 44.6218C82.495 44.3662 82.7514 44.1617 83.0591 44.0084C83.3667 43.855 83.7257 43.7528 84.1103 43.7016C84.5205 43.6505 84.9051 43.625 85.264 43.625C85.8281 43.625 86.2896 43.6505 86.6998 43.7272C86.9306 43.7783 87.1357 43.8294 87.2639 43.855Z" fill="#BEBEBE"/>
<path d="M102.776 43.0366C102.392 42.6788 101.904 42.3721 101.34 42.1165C100.802 41.8609 100.212 41.6053 99.5201 41.3497C99.0329 41.1708 98.5971 41.0175 98.2381 40.8386C97.9048 40.6852 97.6228 40.5318 97.392 40.3529C97.1869 40.1996 97.0331 40.0207 96.9562 39.8418C96.8792 39.6884 96.828 39.4839 96.828 39.2795C96.8023 38.7938 97.0843 38.3593 97.5202 38.1293C97.9561 37.9248 98.4945 37.797 99.0842 37.797C99.8534 37.797 100.546 37.8737 101.084 38.0271C101.622 38.1804 102.033 38.3082 102.289 38.436C102.392 38.4871 102.52 38.4871 102.622 38.436C102.725 38.3849 102.776 38.3082 102.802 38.1804L103.263 36.0079V35.9823C103.289 35.8034 103.186 35.6501 103.033 35.5989C102.879 35.5478 102.674 35.4711 102.392 35.3945C102.11 35.3178 101.802 35.2411 101.443 35.19C101.084 35.1389 100.699 35.0622 100.315 35.0366C99.9046 34.9855 99.4944 34.96 99.0842 34.96C97.4177 34.96 96.0588 35.3433 95.0845 36.1357C94.0846 36.928 93.5718 38.0271 93.5718 39.3817C93.5718 40.0718 93.7 40.6596 93.9307 41.1453C94.1615 41.6309 94.4948 42.0398 94.8794 42.3721C95.264 42.7044 95.7255 42.9855 96.2639 43.2156C96.751 43.4456 97.3151 43.6756 97.3151 43.6756C97.5971 43.8034 98.0586 43.9823 98.315 44.1101C98.6996 44.289 99.7764 44.7747 100.161 45.0558C100.546 45.337 100.751 45.7203 100.751 46.2315C100.751 46.6916 100.571 46.9983 100.187 47.2283C99.7508 47.4584 99.0329 47.5862 98.0586 47.5862C97.0587 47.5862 96.2383 47.4839 95.6486 47.2794C95.0332 47.075 94.5717 46.8961 94.2641 46.7938C94.1615 46.7683 94.0589 46.7683 93.9564 46.8194C93.8538 46.8705 93.8026 46.9727 93.7769 47.075L93.3154 49.2475C93.2898 49.4264 93.3667 49.5798 93.5205 49.6564C93.8026 49.7842 94.2641 49.9376 95.0076 50.1421C95.7511 50.3465 96.7767 50.4743 98.033 50.4743C99.9046 50.4743 101.366 50.1165 102.392 49.4009C103.468 48.6596 104.007 47.5606 104.007 46.1549C104.007 45.4392 103.904 44.8258 103.674 44.3146C103.52 43.8545 103.186 43.42 102.776 43.0366Z" fill="#BEBEBE"/>
<path d="M118.98 39.2026C118.775 38.3591 118.441 37.6179 117.98 37.0045C117.493 36.3911 116.852 35.9055 116.057 35.5732C115.262 35.2409 114.288 35.062 113.108 35.062C112.57 35.062 112.006 35.1131 111.442 35.2154C111.057 35.292 110.698 35.3687 110.365 35.471V28.8C110.365 28.6978 110.314 28.5956 110.237 28.5189C110.16 28.4422 110.057 28.4166 109.955 28.4422L107.442 28.8767H107.417C107.263 28.9278 107.16 29.0556 107.16 29.2345V49.8096C107.16 50.0141 107.314 50.1674 107.519 50.1674H110.032C110.237 50.1674 110.391 50.0141 110.391 49.8096V38.3591C110.442 38.3336 110.493 38.3336 110.57 38.308C110.775 38.2569 111.006 38.2058 111.237 38.1547C111.493 38.1035 111.775 38.078 112.057 38.0269C112.339 38.0013 112.596 37.9757 112.852 37.9757C113.467 37.9757 114.006 38.0524 114.416 38.2058C114.801 38.3591 115.108 38.5892 115.339 38.8959C115.57 39.2281 115.749 39.6882 115.852 40.2505C115.954 40.8384 116.006 41.8607 116.006 41.8607C116.006 42.1674 116.031 42.6531 116.031 42.9598V49.7841C116.031 49.9885 116.185 50.1419 116.39 50.1419H118.903C119.108 50.1419 119.262 49.9885 119.262 49.7841V42.423C119.262 42.1163 119.262 41.6051 119.236 41.2984C119.236 41.2984 119.159 40.0205 118.98 39.2026Z" fill="#BEBEBE"/>
<path d="M142.9 39.254C142.746 38.4106 142.464 37.6694 142.054 37.0559C141.618 36.417 141.029 35.9313 140.285 35.5991C139.542 35.2668 138.593 35.0879 137.465 35.0879C136.875 35.0879 136.311 35.139 135.798 35.2668C135.285 35.3946 134.824 35.5224 134.414 35.6758C134.004 35.8291 133.645 36.008 133.363 36.1869C133.234 36.2636 133.106 36.3403 133.004 36.417C132.593 36.008 132.106 35.7013 131.542 35.4713C130.876 35.2157 130.081 35.0879 129.132 35.0879C127.876 35.0879 126.748 35.1646 125.773 35.3435C124.825 35.4968 124.03 35.6758 123.44 35.8035H123.415C123.261 35.8547 123.158 35.9825 123.158 36.1358V49.8099C123.158 50.0144 123.312 50.1678 123.517 50.1678H126.03C126.235 50.1678 126.389 50.0144 126.389 49.8099V38.2061C126.44 38.2061 126.466 38.1805 126.517 38.1805C126.722 38.155 126.978 38.1039 127.209 38.0783C127.466 38.0527 127.748 38.0272 128.03 38.0016C128.312 37.9761 128.568 37.9761 128.824 37.9761C129.363 37.9761 129.799 38.0527 130.158 38.2317C130.491 38.385 130.747 38.6406 130.927 38.9729C131.132 39.3307 131.286 39.7908 131.363 40.3275C131.44 40.8898 131.491 41.8611 131.491 41.8611C131.491 42.1678 131.517 42.6534 131.517 42.9601V49.7844C131.517 49.9888 131.67 50.1422 131.875 50.1422H134.388C134.593 50.1422 134.747 49.9888 134.747 49.7844V42.4234C134.747 42.1166 134.747 41.6055 134.721 41.2988C134.721 41.2732 134.696 40.6342 134.619 40.0464C134.568 39.5607 134.465 39.1007 134.362 38.6917C134.516 38.5895 134.798 38.4617 135.209 38.2828C135.721 38.0783 136.388 37.9761 137.183 37.9761C137.747 37.9761 138.183 38.0527 138.542 38.2317C138.875 38.385 139.131 38.6406 139.311 38.9729C139.516 39.3307 139.644 39.7908 139.721 40.3275C139.798 40.8898 139.824 41.8611 139.824 41.8866C139.824 42.1933 139.849 42.6789 139.849 42.9857V49.8099C139.849 50.0144 140.003 50.1678 140.208 50.1678H142.721C142.926 50.1678 143.08 50.0144 143.08 49.8099V42.4489C143.08 42.1422 143.08 41.631 143.054 41.3243C143.105 41.2988 143.054 40.0464 142.9 39.254Z" fill="#BEBEBE"/>
<path d="M153.13 35.0107C152.284 35.0107 151.412 35.1641 150.617 35.4964C149.797 35.8286 149.053 36.3143 148.438 36.9532C147.797 37.5922 147.31 38.4101 146.925 39.3813C146.541 40.3526 146.361 41.5028 146.361 42.7807C146.361 43.8798 146.515 44.9021 146.797 45.8222C147.079 46.7679 147.541 47.5858 148.156 48.2759C148.771 48.966 149.566 49.5028 150.515 49.9117C151.464 50.2951 152.566 50.4996 153.848 50.4996C154.848 50.4996 155.771 50.3973 156.566 50.2184C157.36 50.0395 157.925 49.8606 158.258 49.6817C158.258 49.6817 158.258 49.6817 158.283 49.6817C158.412 49.605 158.489 49.4516 158.463 49.3238L158.104 47.2024C158.078 47.1002 158.001 46.998 157.899 46.9468C157.796 46.8957 157.694 46.8957 157.591 46.9468C157.309 47.0746 156.873 47.228 156.284 47.3813C155.72 47.5347 154.976 47.6114 154.13 47.6114C152.669 47.6114 151.566 47.2536 150.899 46.589C150.284 45.9756 149.9 45.0555 149.771 43.8798H159.053C159.232 43.8798 159.386 43.752 159.412 43.573C159.437 43.4197 159.437 43.2408 159.437 43.0619V42.6529C159.437 40.1481 158.899 38.2567 157.822 37.0044C156.72 35.6497 155.156 35.0107 153.13 35.0107ZM149.797 41.0682C149.848 40.736 149.951 40.4293 150.053 40.1226C150.207 39.6881 150.438 39.3047 150.72 38.998C151.002 38.6657 151.335 38.4101 151.746 38.2056C152.13 38.0012 152.592 37.8989 153.104 37.8989C154.027 37.8989 154.745 38.2056 155.258 38.8702C155.72 39.458 155.976 40.1992 156.027 41.0938H149.797V41.0682Z" fill="#BEBEBE"/>
<path d="M174.975 41.35C174.975 41.2989 174.898 40.021 174.719 39.2031C174.513 38.3596 174.18 37.6184 173.719 37.005C173.231 36.3916 172.59 35.906 171.796 35.5737C171.001 35.2414 170.027 35.0625 168.847 35.0625C167.591 35.0625 166.437 35.1392 165.463 35.3181C164.489 35.4714 163.719 35.6504 163.13 35.7782H163.104C162.95 35.8293 162.848 35.9571 162.848 36.1104V49.7845C162.848 49.989 163.001 50.1424 163.207 50.1424H165.719C165.924 50.1424 166.078 49.989 166.078 49.7845V38.1807C166.129 38.1807 166.181 38.1552 166.232 38.1552C166.437 38.1296 166.668 38.0785 166.924 38.0529C167.181 38.0274 167.463 38.0018 167.745 37.9762C168.027 37.9507 168.309 37.9507 168.565 37.9507C169.181 37.9507 169.719 38.0274 170.129 38.1807C170.514 38.3341 170.821 38.5641 171.052 38.8708C171.283 39.2031 171.462 39.6631 171.565 40.2254C171.667 40.8133 171.719 41.8357 171.719 41.8357C171.719 42.1424 171.744 42.628 171.744 42.9347V49.759C171.744 49.9635 171.898 50.1168 172.103 50.1168H174.616C174.821 50.1168 174.975 49.9635 174.975 49.759V42.398C175.001 42.1424 175.001 41.6567 174.975 41.35Z" fill="#BEBEBE"/>
</svg>
